<svg version="1.2" baseProfile="tiny" xmlns="http://www.w3.org/2000/svg" width="32" height="32" viewBox="0 0 24 24">
  <defs>
    <linearGradient id="grad" x1="0%" y1="0%" x2="100%" y2="100%">
      <stop offset="0%" style="stop-color:#1a75ff;stop-opacity:1" />
      <stop offset="100%" style="stop-color:#0052cc;stop-opacity:1" />
    </linearGradient>
  </defs>
  <path fill="url(#grad)" d="M21 7h-3c0-1.65-1.35-3-3-3h-12c-1.65 0-3 1.35-3 3v7c0 1.65 1.35 3 3 3v3l3-3c0 1.65 1.35 3 3 3h8l3 3v-3h1c1.65 0 3-1.35 3-3v-7c0-1.65-1.35-3-3-3zm-18 8c-.542 0-1-.458-1-1v-7c0-.542.458-1 1-1h12c.542 0 1 .458 1 1v1h-6.5c-1.379 0-2.5 1.121-2.5 2.5v4.5h-4zm19 2c0 .542-.458 1-1 1h-12c-.542 0-1-.458-1-1v-6.5c0-.827.673-1.5 1.5-1.5h11.5c.542 0 1 .458 1 1v7z"/>
</svg> 